<mxfile host="app.diagrams.net" agent="Mozilla/5.0 (Windows NT 10.0; Win64; x64) AppleWebKit/537.36 (KHTML, like Gecko) Chrome/133.0.0.0 Safari/537.36 Edg/133.0.0.0" version="26.0.14">
  <diagram name="Page-1" id="c7558073-3199-34d8-9f00-42111426c3f3">
    <mxGraphModel dx="784" dy="1133" grid="1" gridSize="10" guides="1" tooltips="1" connect="1" arrows="1" fold="1" page="1" pageScale="1" pageWidth="826" pageHeight="1169" background="none" math="0" shadow="0">
      <root>
        <mxCell id="0" />
        <mxCell id="1" parent="0" />
        <mxCell id="9QOfbOmsqKRPjMOSbZTi-109" value="" style="edgeStyle=orthogonalEdgeStyle;rounded=0;orthogonalLoop=1;jettySize=auto;html=1;" edge="1" parent="1" source="9QOfbOmsqKRPjMOSbZTi-98" target="9QOfbOmsqKRPjMOSbZTi-99">
          <mxGeometry relative="1" as="geometry" />
        </mxCell>
        <mxCell id="9QOfbOmsqKRPjMOSbZTi-113" value="" style="edgeStyle=orthogonalEdgeStyle;rounded=0;orthogonalLoop=1;jettySize=auto;html=1;startArrow=classic;startFill=1;" edge="1" parent="1" source="9QOfbOmsqKRPjMOSbZTi-98" target="9QOfbOmsqKRPjMOSbZTi-107">
          <mxGeometry relative="1" as="geometry" />
        </mxCell>
        <mxCell id="9QOfbOmsqKRPjMOSbZTi-127" value="d" style="edgeLabel;html=1;align=center;verticalAlign=middle;resizable=0;points=[];" vertex="1" connectable="0" parent="9QOfbOmsqKRPjMOSbZTi-113">
          <mxGeometry x="-0.04" y="2" relative="1" as="geometry">
            <mxPoint x="7" as="offset" />
          </mxGeometry>
        </mxCell>
        <mxCell id="9QOfbOmsqKRPjMOSbZTi-98" value="&lt;span style=&quot;font-size: 12pt; line-height: 120%; font-family: Calibri, sans-serif;&quot;&gt;Medical Practice Management system&amp;nbsp;&lt;/span&gt;" style="ellipse;whiteSpace=wrap;html=1;aspect=fixed;fillColor=#fff2cc;strokeColor=#d6b656;" vertex="1" parent="1">
          <mxGeometry x="350" y="230" width="100" height="100" as="geometry" />
        </mxCell>
        <mxCell id="9QOfbOmsqKRPjMOSbZTi-108" value="" style="edgeStyle=orthogonalEdgeStyle;rounded=0;orthogonalLoop=1;jettySize=auto;html=1;" edge="1" parent="1" source="9QOfbOmsqKRPjMOSbZTi-99" target="9QOfbOmsqKRPjMOSbZTi-98">
          <mxGeometry relative="1" as="geometry" />
        </mxCell>
        <mxCell id="9QOfbOmsqKRPjMOSbZTi-126" value="a" style="edgeLabel;html=1;align=center;verticalAlign=middle;resizable=0;points=[];" vertex="1" connectable="0" parent="9QOfbOmsqKRPjMOSbZTi-108">
          <mxGeometry x="0.2476" y="-2" relative="1" as="geometry">
            <mxPoint x="-5" y="-12" as="offset" />
          </mxGeometry>
        </mxCell>
        <mxCell id="9QOfbOmsqKRPjMOSbZTi-99" value="Patient" style="whiteSpace=wrap;html=1;aspect=fixed;fillColor=#dae8fc;strokeColor=#6c8ebf;" vertex="1" parent="1">
          <mxGeometry x="200" y="240" width="80" height="80" as="geometry" />
        </mxCell>
        <mxCell id="9QOfbOmsqKRPjMOSbZTi-112" value="" style="edgeStyle=orthogonalEdgeStyle;rounded=0;orthogonalLoop=1;jettySize=auto;html=1;startArrow=classic;startFill=1;" edge="1" parent="1" source="9QOfbOmsqKRPjMOSbZTi-100" target="9QOfbOmsqKRPjMOSbZTi-98">
          <mxGeometry relative="1" as="geometry" />
        </mxCell>
        <mxCell id="9QOfbOmsqKRPjMOSbZTi-130" value="c" style="edgeLabel;html=1;align=center;verticalAlign=middle;resizable=0;points=[];" vertex="1" connectable="0" parent="9QOfbOmsqKRPjMOSbZTi-112">
          <mxGeometry x="0.0952" y="2" relative="1" as="geometry">
            <mxPoint x="-2" y="-12" as="offset" />
          </mxGeometry>
        </mxCell>
        <mxCell id="9QOfbOmsqKRPjMOSbZTi-100" value="Practioner" style="whiteSpace=wrap;html=1;aspect=fixed;fillColor=#dae8fc;strokeColor=#6c8ebf;" vertex="1" parent="1">
          <mxGeometry x="520" y="240" width="80" height="80" as="geometry" />
        </mxCell>
        <mxCell id="9QOfbOmsqKRPjMOSbZTi-114" value="" style="edgeStyle=orthogonalEdgeStyle;rounded=0;orthogonalLoop=1;jettySize=auto;html=1;startArrow=classic;startFill=1;" edge="1" parent="1" source="9QOfbOmsqKRPjMOSbZTi-105" target="9QOfbOmsqKRPjMOSbZTi-98">
          <mxGeometry relative="1" as="geometry" />
        </mxCell>
        <mxCell id="9QOfbOmsqKRPjMOSbZTi-128" value="b" style="edgeLabel;html=1;align=center;verticalAlign=middle;resizable=0;points=[];" vertex="1" connectable="0" parent="9QOfbOmsqKRPjMOSbZTi-114">
          <mxGeometry x="0.08" y="1" relative="1" as="geometry">
            <mxPoint x="8" as="offset" />
          </mxGeometry>
        </mxCell>
        <mxCell id="9QOfbOmsqKRPjMOSbZTi-105" value="Pathology Laboratories" style="rounded=0;whiteSpace=wrap;html=1;fillColor=#dae8fc;strokeColor=#6c8ebf;" vertex="1" parent="1">
          <mxGeometry x="340" y="120" width="120" height="60" as="geometry" />
        </mxCell>
        <mxCell id="9QOfbOmsqKRPjMOSbZTi-107" value="Insurance Providers" style="rounded=0;whiteSpace=wrap;html=1;fillColor=#dae8fc;strokeColor=#6c8ebf;" vertex="1" parent="1">
          <mxGeometry x="340" y="370" width="120" height="60" as="geometry" />
        </mxCell>
        <mxCell id="9QOfbOmsqKRPjMOSbZTi-116" style="rounded=0;orthogonalLoop=1;jettySize=auto;html=1;entryX=1;entryY=0;entryDx=0;entryDy=0;exitX=0;exitY=1;exitDx=0;exitDy=0;startArrow=classic;startFill=1;" edge="1" parent="1" source="9QOfbOmsqKRPjMOSbZTi-115" target="9QOfbOmsqKRPjMOSbZTi-98">
          <mxGeometry relative="1" as="geometry" />
        </mxCell>
        <mxCell id="9QOfbOmsqKRPjMOSbZTi-132" value="f" style="edgeLabel;html=1;align=center;verticalAlign=middle;resizable=0;points=[];" vertex="1" connectable="0" parent="9QOfbOmsqKRPjMOSbZTi-116">
          <mxGeometry x="0.1292" relative="1" as="geometry">
            <mxPoint as="offset" />
          </mxGeometry>
        </mxCell>
        <mxCell id="9QOfbOmsqKRPjMOSbZTi-115" value="Australian Digital Health Agency&lt;div&gt;(ADHA)&lt;/div&gt;" style="rounded=0;whiteSpace=wrap;html=1;fillColor=#dae8fc;strokeColor=#6c8ebf;" vertex="1" parent="1">
          <mxGeometry x="519" y="140" width="120" height="60" as="geometry" />
        </mxCell>
        <mxCell id="9QOfbOmsqKRPjMOSbZTi-121" style="rounded=0;orthogonalLoop=1;jettySize=auto;html=1;entryX=0;entryY=0;entryDx=0;entryDy=0;startArrow=classic;startFill=1;exitX=1;exitY=1;exitDx=0;exitDy=0;" edge="1" parent="1" source="9QOfbOmsqKRPjMOSbZTi-119" target="9QOfbOmsqKRPjMOSbZTi-98">
          <mxGeometry relative="1" as="geometry" />
        </mxCell>
        <mxCell id="9QOfbOmsqKRPjMOSbZTi-131" value="e" style="edgeLabel;html=1;align=center;verticalAlign=middle;resizable=0;points=[];" vertex="1" connectable="0" parent="9QOfbOmsqKRPjMOSbZTi-121">
          <mxGeometry x="0.0782" relative="1" as="geometry">
            <mxPoint as="offset" />
          </mxGeometry>
        </mxCell>
        <mxCell id="9QOfbOmsqKRPjMOSbZTi-119" value="Medical Board of Australia (MBA)" style="rounded=0;whiteSpace=wrap;html=1;fillColor=#dae8fc;strokeColor=#6c8ebf;" vertex="1" parent="1">
          <mxGeometry x="160" y="140" width="120" height="60" as="geometry" />
        </mxCell>
        <mxCell id="9QOfbOmsqKRPjMOSbZTi-123" style="rounded=0;orthogonalLoop=1;jettySize=auto;html=1;entryX=0;entryY=1;entryDx=0;entryDy=0;startArrow=classic;startFill=1;exitX=1;exitY=0;exitDx=0;exitDy=0;" edge="1" parent="1" source="9QOfbOmsqKRPjMOSbZTi-122" target="9QOfbOmsqKRPjMOSbZTi-98">
          <mxGeometry relative="1" as="geometry" />
        </mxCell>
        <mxCell id="9QOfbOmsqKRPjMOSbZTi-134" value="h" style="edgeLabel;html=1;align=center;verticalAlign=middle;resizable=0;points=[];" vertex="1" connectable="0" parent="9QOfbOmsqKRPjMOSbZTi-123">
          <mxGeometry x="-0.0445" y="-3" relative="1" as="geometry">
            <mxPoint as="offset" />
          </mxGeometry>
        </mxCell>
        <mxCell id="9QOfbOmsqKRPjMOSbZTi-122" value="Australian Health Practitioner Regulation Agency (AHPRA)" style="rounded=0;whiteSpace=wrap;html=1;fillColor=#dae8fc;strokeColor=#6c8ebf;" vertex="1" parent="1">
          <mxGeometry x="160" y="360" width="120" height="60" as="geometry" />
        </mxCell>
        <mxCell id="9QOfbOmsqKRPjMOSbZTi-125" style="rounded=0;orthogonalLoop=1;jettySize=auto;html=1;entryX=1;entryY=1;entryDx=0;entryDy=0;startArrow=classic;startFill=1;exitX=0;exitY=0;exitDx=0;exitDy=0;" edge="1" parent="1" source="9QOfbOmsqKRPjMOSbZTi-124" target="9QOfbOmsqKRPjMOSbZTi-98">
          <mxGeometry relative="1" as="geometry" />
        </mxCell>
        <mxCell id="9QOfbOmsqKRPjMOSbZTi-133" value="g" style="edgeLabel;html=1;align=center;verticalAlign=middle;resizable=0;points=[];" vertex="1" connectable="0" parent="9QOfbOmsqKRPjMOSbZTi-125">
          <mxGeometry x="-0.0979" y="1" relative="1" as="geometry">
            <mxPoint as="offset" />
          </mxGeometry>
        </mxCell>
        <mxCell id="9QOfbOmsqKRPjMOSbZTi-124" value="Royal Australian College of General Practitioners (RACGP)" style="rounded=0;whiteSpace=wrap;html=1;fillColor=#dae8fc;strokeColor=#6c8ebf;" vertex="1" parent="1">
          <mxGeometry x="519" y="360" width="120" height="60" as="geometry" />
        </mxCell>
      </root>
    </mxGraphModel>
  </diagram>
</mxfile>
